<svg xmlns="http://www.w3.org/2000/svg" width="1600" height="420" viewBox="0 0 1600 420" role="img" aria-label="鹏鹏看图 / ppkantu banner">
  <defs>
    <linearGradient id="bg" x1="0" y1="0" x2="1" y2="1">
      <stop offset="0%" stop-color="#0f172a"/>
      <stop offset="100%" stop-color="#1e3a8a"/>
    </linearGradient>
    <linearGradient id="accent" x1="0" y1="0" x2="1" y2="0">
      <stop offset="0%" stop-color="#38bdf8"/>
      <stop offset="100%" stop-color="#a78bfa"/>
    </linearGradient>
    <filter id="shadow" x="-20%" y="-20%" width="140%" height="140%">
      <feDropShadow dx="0" dy="12" stdDeviation="18" flood-color="#000000" flood-opacity="0.35"/>
    </filter>
  </defs>
  <rect width="1600" height="420" rx="36" fill="url(#bg)"/>
  <circle cx="1320" cy="92" r="190" fill="#2563eb" opacity="0.15"/>
  <circle cx="1460" cy="340" r="250" fill="#8b5cf6" opacity="0.12"/>
  <g filter="url(#shadow)">
    <rect x="108" y="88" width="180" height="180" rx="36" fill="url(#accent)"/>
    <rect x="142" y="122" width="112" height="112" rx="18" fill="#ffffff" opacity="0.92"/>
    <path d="M162 208 L196 168 L220 198 L238 182 L238 220 L162 220 Z" fill="#2563eb"/>
    <circle cx="222" cy="154" r="14" fill="#fbbf24"/>
    <path d="M124 246 L268 246" stroke="#ffffff" stroke-opacity="0.22" stroke-width="2"/>
  </g>
  <text x="340" y="164" fill="#ffffff" font-family="Segoe UI, Arial, sans-serif" font-size="70" font-weight="700">鹏鹏看图</text>
  <text x="340" y="224" fill="#cbd5e1" font-family="Segoe UI, Arial, sans-serif" font-size="34">ppkantu · WPF / .NET 8</text>
  <rect x="340" y="262" width="420" height="10" rx="5" fill="url(#accent)" opacity="0.95"/>
  <text x="340" y="320" fill="#e2e8f0" font-family="Segoe UI, Arial, sans-serif" font-size="24">轻量、干净、无广告的 Windows 图片查看与处理工具</text>
</svg>
